ffmpeg version 4.2.10 Copyright (c) 2000-2024 the FFmpeg developers
  built with gcc 8 (GCC)
  configuration: --prefix=/usr --bindir=/usr/bin --datadir=/usr/share/ffmpeg --docdir=/usr/share/doc/ffmpeg --incdir=/usr/include/ffmpeg --libdir=/usr/lib64 --mandir=/usr/share/man --arch=x86_64 --optflags='-O2 -g -pipe -Wall -Werror=format-security -Wp,-D_FORTIFY_SOURCE=2 -Wp,-D_GLIBCXX_ASSERTIONS -fexceptions -fstack-protector-strong -grecord-gcc-switches -specs=/usr/lib/rpm/redhat/redhat-hardened-cc1 -specs=/usr/lib/rpm/redhat/redhat-annobin-cc1 -m64 -mtune=generic -fasynchronous-unwind-tables -fstack-clash-protection -fcf-protection' --extra-ldflags='-Wl,-z,relro -Wl,-z,now -specs=/usr/lib/rpm/redhat/redhat-hardened-ld ' --extra-cflags=' ' --enable-libopencore-amrnb --enable-libopencore-amrwb --enable-libvo-amrwbenc --enable-version3 --enable-bzlib --disable-crystalhd --enable-fontconfig --enable-frei0r --enable-gcrypt --enable-gnutls --enable-ladspa --enable-libaom --enable-libdav1d --enable-libass --enable-libbluray --enable-libcdio --enable-libdrm --enable-libjack --enable-libfreetype --enable-libfribidi --enable-libgsm --enable-libmp3lame --enable-nvenc --enable-openal --enable-opencl --enable-opengl --enable-libopenjpeg --enable-libopus --enable-libpulse --enable-librsvg --enable-libsrt --enable-libsoxr --enable-libspeex --enable-libssh --enable-libtheora --enable-libvorbis --enable-libv4l2 --enable-libvidstab --enable-libvmaf --enable-version3 --enable-vapoursynth --enable-libvpx --enable-libx264 --enable-libx265 --enable-libxvid --enable-libzimg --enable-libzvbi --enable-avfilter --enable-avresample --enable-libmodplug --enable-postproc --enable-pthreads --disable-static --enable-shared --enable-gpl --disable-debug --disable-stripping --shlibdir=/usr/lib64 --enable-libmfx --enable-runtime-cpudetect
  libavutil      56. 31.100 / 56. 31.100
  libavcodec     58. 54.100 / 58. 54.100
  libavformat    58. 29.100 / 58. 29.100
  libavdevice    58.  8.100 / 58.  8.100
  libavfilter     7. 57.100 /  7. 57.100
  libavresample   4.  0.  0 /  4.  0.  0
  libswscale      5.  5.100 /  5.  5.100
  libswresample   3.  5.100 /  3.  5.100
  libpostproc    55.  5.100 / 55.  5.100
Input #0, matroska,webm, from './clips/up01 90 Strength 5 A Viking warrior rowing a longship through icy waters, illustrated in a bold, graphic novel style..webm':
  Metadata:
    encoder         : GStreamer matroskamux version 1.20.3
    creation_time   : 2024-10-24T19:59:47.547571Z
  Duration: 00:00:15.09, start: 0.000000, bitrate: 411 kb/s
    Stream #0:0(eng): Video: vp8, yuv420p(tv, bt709, progressive), 769x1538, SAR 1:1 DAR 1:2, 29.58 fps, 29.58 tbr, 1k tbn, 1k tbc (default)
    Metadata:
      title           : Video
Stream mapping:
  Stream #0:0 (vp8) -> setpts
  setpts -> Stream #0:0 (libvpx-vp9)
Press [q] to stop, [?] for help
[libvpx-vp9 @ 0x556f47f50680] v1.7.0
Output #0, webm, to './clips_7s/up01 90 Strength 5 A Viking warrior rowing a longship through icy waters, illustrated in a bold, graphic novel style._adjusted.webm':
  Metadata:
    encoder         : Lavf58.29.100
    Stream #0:0: Video: vp9 (libvpx-vp9), yuv420p, 769x1538 [SAR 1:1 DAR 1:2], q=-1--1, 200 kb/s, 29.58 fps, 1k tbn, 29.58 tbc (default)
    Metadata:
      encoder         : Lavc58.54.100 libvpx-vp9
    Side data:
      cpb: bitrate max/min/avg: 0/0/0 buffer size: 0 vbv_delay: -1
frame=   26 fps=0.0 q=0.0 size=       1kB time=00:00:00.03 bitrate= 136.9kbits/s dup=0 drop=26 speed=0.0648x    frame=   31 fps= 25 q=0.0 size=       1kB time=00:00:00.20 bitrate=  23.5kbits/s dup=0 drop=32 speed=0.162x    frame=   32 fps= 15 q=0.0 size=       1kB time=00:00:00.23 bitrate=  20.1kbits/s dup=0 drop=33 speed=0.112x    frame=   33 fps= 12 q=0.0 size=       1kB time=00:00:00.27 bitrate=  17.7kbits/s dup=0 drop=34 speed=0.098x    frame=   34 fps=8.8 q=0.0 size=       1kB time=00:00:00.30 bitrate=  15.7kbits/s dup=0 drop=35 speed=0.0791x    frame=   35 fps=7.1 q=0.0 size=       1kB time=00:00:00.33 bitrate=  14.1kbits/s dup=0 drop=37 speed=0.0686x    frame=   40 fps=7.3 q=0.0 size=       1kB time=00:00:00.50 bitrate=   9.4kbits/s dup=0 drop=42 speed=0.0928x    frame=   44 fps=7.4 q=0.0 size=       1kB time=00:00:00.64 bitrate=   7.5kbits/s dup=0 drop=47 speed=0.108x    frame=   47 fps=7.2 q=0.0 size=       1kB time=00:00:00.74 bitrate=   6.4kbits/s dup=0 drop=51 speed=0.114x    frame=   53 fps=7.5 q=0.0 size=       1kB time=00:00:00.94 bitrate=   5.1kbits/s dup=0 drop=57 speed=0.134x    frame=   57 fps=7.5 q=0.0 size=       1kB time=00:00:01.08 bitrate=   4.4kbits/s dup=0 drop=62 speed=0.142x    frame=   61 fps=7.5 q=0.0 size=       1kB time=00:00:01.21 bitrate=   3.9kbits/s dup=0 drop=67 speed=0.149x    frame=   67 fps=7.7 q=0.0 size=       1kB time=00:00:01.42 bitrate=   3.4kbits/s dup=0 drop=73 speed=0.164x    frame=   73 fps=7.8 q=0.0 size=       1kB time=00:00:01.62 bitrate=   3.0kbits/s dup=0 drop=79 speed=0.174x    frame=   75 fps=7.4 q=0.0 size=       1kB time=00:00:01.69 bitrate=   2.8kbits/s dup=0 drop=82 speed=0.168x    frame=   85 fps=8.0 q=0.0 size=       1kB time=00:00:02.02 bitrate=   2.4kbits/s dup=0 drop=92 speed=0.191x    frame=   96 fps=8.6 q=0.0 size=       1kB time=00:00:02.40 bitrate=   2.0kbits/s dup=0 drop=105 speed=0.215x    frame=  102 fps=8.7 q=0.0 size=       1kB time=00:00:02.60 bitrate=   1.8kbits/s dup=0 drop=112 speed=0.221x    frame=  104 fps=8.4 q=0.0 size=       1kB time=00:00:02.67 bitrate=   1.8kbits/s dup=0 drop=115 speed=0.215x    frame=  105 fps=7.2 q=0.0 size=       1kB time=00:00:02.70 bitrate=   1.8kbits/s dup=0 drop=116 speed=0.185x    frame=  108 fps=7.1 q=0.0 size=       1kB time=00:00:02.80 bitrate=   1.7kbits/s dup=0 drop=119 speed=0.184x    frame=  114 fps=7.2 q=0.0 size=       1kB time=00:00:03.00 bitrate=   1.6kbits/s dup=0 drop=126 speed=0.191x    frame=  119 fps=7.3 q=0.0 size=       1kB time=00:00:03.17 bitrate=   1.5kbits/s dup=0 drop=132 speed=0.195x    frame=  125 fps=7.4 q=0.0 size=       1kB time=00:00:03.38 bitrate=   1.4kbits/s dup=0 drop=139 speed=0.199x    frame=  136 fps=7.8 q=0.0 size=       1kB time=00:00:03.75 bitrate=   1.3kbits/s dup=0 drop=152 speed=0.214x    frame=  147 fps=8.2 q=0.0 size=       1kB time=00:00:04.12 bitrate=   1.2kbits/s dup=0 drop=164 speed=0.229x    frame=  153 fps=8.1 q=0.0 size=     176kB time=00:00:04.32 bitrate= 333.8kbits/s dup=0 drop=171 speed=0.23x    frame=  160 fps=8.2 q=0.0 size=     176kB time=00:00:04.56 bitrate= 316.5kbits/s dup=0 drop=179 speed=0.235x    frame=  166 fps=8.3 q=0.0 size=     176kB time=00:00:04.76 bitrate= 303.0kbits/s dup=0 drop=186 speed=0.239x    frame=  172 fps=8.4 q=0.0 size=     176kB time=00:00:04.97 bitrate= 290.7kbits/s dup=0 drop=193 speed=0.242x    frame=  175 fps=8.3 q=0.0 size=     176kB time=00:00:05.07 bitrate= 284.9kbits/s dup=0 drop=197 speed=0.241x    frame=  180 fps=8.3 q=0.0 size=     176kB time=00:00:05.24 bitrate= 275.7kbits/s dup=0 drop=203 speed=0.242x    frame=  182 fps=8.1 q=0.0 size=     176kB time=00:00:05.30 bitrate= 272.1kbits/s dup=0 drop=205 speed=0.236x    frame=  183 fps=7.5 q=0.0 size=     176kB time=00:00:05.34 bitrate= 270.4kbits/s dup=0 drop=206 speed=0.219x    frame=  185 fps=7.4 q=0.0 size=     176kB time=00:00:05.40 bitrate= 267.1kbits/s dup=0 drop=208 speed=0.216x    frame=  189 fps=7.4 q=0.0 size=     176kB time=00:00:05.54 bitrate= 260.5kbits/s dup=0 drop=213 speed=0.217x    frame=  193 fps=7.4 q=0.0 size=     176kB time=00:00:05.68 bitrate= 254.3kbits/s dup=0 drop=218 speed=0.217x    frame=  203 fps=7.6 q=0.0 size=     176kB time=00:00:06.01 bitrate= 240.0kbits/s dup=0 drop=229 speed=0.225x    frame=  209 fps=7.3 q=0.0 Lsize=     443kB time=00:00:07.03 bitrate= 516.2kbits/s dup=0 drop=237 speed=0.246x    
video:441kB audio:0kB subtitle:0kB other streams:0kB global headers:0kB muxing overhead: 0.440522%
